
<svg fill="#fff" version="1.1" id="Layer_1" xmlns="http://www.w3.org/2000/svg" xmlns:xlink="http://www.w3.org/1999/xlink" x="0px" y="0px"
	 viewBox="0 0 314 106.6" style="enable-background:new 0 0 314 106.6;" xml:space="preserve">
<g>
	<g>
		<path d="M119.1,26.3c0,6.1-5.4,10.3-17.3,10.3H87.7c-0.7,0-1.2-0.4-1.2-1v-0.2c0-1.4,2.1-2.1,2.1-4.4V5.6c0-2.4-2.1-3-2.1-4.4V1
			c0-0.6,0.5-1,1.2-1H102c9.3,0,13.5,4.1,13.5,9.3c0,3.9-2.4,6.7-6,7.7C115.5,17.7,119.1,21.3,119.1,26.3z M97.8,12.8
			c0,1.7,1.1,2.7,2.8,2.7h2.6c2.6,0,4.3-1.9,4.3-4.9c0-4.4-2.3-7-5.8-7h-1.4c-1.3,0-2.4,0.6-2.4,2.7v6.5H97.8z M109.3,27.6
			c0-3.8-3.2-8.6-9.4-8.6h-2.2v9.6c0,2.5,1.5,4.4,3.9,4.4h2.5C107.5,33,109.3,30.8,109.3,27.6z"/>
		<path d="M144.3,29.2c-0.1,2.8-3.7,8-10.5,8c-7.5,0-12.8-5.2-12.8-13.1c0-7.7,5.9-12.8,12.7-12.8s9.9,3.8,9.9,7.1
			c0,1.6-0.8,2.6-2,3.2l-10.3,5.8c1.3,2.1,3.4,3.4,5.9,3.4c2.2,0,4.2-1,5.2-2.3C143.1,27.7,144.4,28.1,144.3,29.2z M129.4,19.3
			c0,2,0.3,3.9,0.8,5.4l4.8-2.9c0.8-0.6,1.3-1.6,1.3-2.6c0-1.7-0.8-5.3-3.5-5.3C130.7,13.8,129.4,16.3,129.4,19.3z"/>
		<path d="M202.3,35.5v0.2c0,0.6-0.5,1-1.2,1h-10.4c-0.7,0-1.2-0.4-1.2-1v-0.2c0-1.4,2-2.1,1.9-4.5l-0.5-9.2
			c-0.3-5.2-1.3-7.1-3.6-7.1c-2.1,0-3.2,2.1-3.2,4.9c0.1,0.7,0.2,1.4,0.2,2.2V31c0,2.4,1.9,3,1.9,4.5v0.2c0,0.6-0.5,1-1.2,1h-10.3
			c-0.8,0-1.2-0.4-1.2-1v-0.2c0-1.4,1.8-2.1,1.8-4.5v-9.8c0-4.4-1.3-6.5-3.5-6.5c-2.4,0-3.5,2.1-3.5,4.9V31c0,2.4,2.3,3,2.3,4.5v0.2
			c0,0.6-0.5,1-1.2,1h-11.2c-0.8,0-1.2-0.4-1.2-1v-0.2c0-1.4,2.3-2.1,2.3-4.5V20.8c0-2.4-2.7-2.8-2.7-4.3v-0.2
			c0-0.6,0.5-0.9,1.2-1.3l7.8-3.6c1.3-0.6,2,0.2,2,1.2v1.9c1.5-2.1,3.9-3.3,6.9-3.3c3.6,0,6.7,1.4,8.5,4.2c1.4-2.7,4.2-4.2,7.7-4.2
			c4.4,0,8.9,2.5,9.5,10.9l0.7,8.8C200.6,33.4,202.3,34.1,202.3,35.5z"/>
		<path d="M230.1,12.8V13c0,1.5-1.8,2.2-2.8,4.5l-9.8,21c-1.4,3.2-4.3,9.2-9.8,9.2c-5.1,0-8.2-3-8.2-6c0-2.2,1.3-3.6,3.7-3.6
			c5,0,3.4,6.9,5.8,6.9c1.6,0,3.5-3.5,4.9-6.7l-10.5-20.7c-1.2-2.4-2.9-3-2.9-4.5v-0.2c0-0.6,0.5-1,1.2-1h11.1c0.7,0,1.1,0.4,1.1,1
			v0.2c0,1.4-2,1.7-0.7,4.6l5.3,12.4l4.8-11.5c1.4-3.5-2.4-4-2.4-5.5v-0.2c0-0.6,0.5-1,1.2-1h6.9C229.7,11.8,230.1,12.2,230.1,12.8z
			"/>
	</g>
	<g>
		<path d="M0,62.6c0-27.5,20.2-44.1,40.8-44.1c20.4,0,35.5,10,35.5,22.3c0,5.9-3.9,9.8-9.7,9.8C51,50.6,49,27.1,35.3,27.1
			c-8.6,0-14.1,8.9-14.1,21.1c0,23.9,12.4,43.5,27.4,43.5c3,0,5.2-0.5,6.9-1.2V74.7c0-5.7-6.8-7-6.8-10.4v-0.5
			c0-1.4,1.4-2.4,3.1-2.4l26.9,0.1c1.8,0,2.9,1,2.9,2.4v0.5c0,3.4-5.8,4.7-5.8,10.4v14c0,3.5-1,5.8-5.1,9.1
			c-5.3,4.2-14.9,8.7-27,8.7C17.9,106.6,0,85.3,0,62.6z"/>
		<path d="M151.5,102.1c0,3.3-4.7,4-12.4,4c-7.5,0-10.7-1.8-11.4-7c-3.1,4.8-8.8,7.5-17,7.5c-12.2,0-22.6-8.3-22.6-23.8V62.6
			c0-5.7-4.8-7.1-4.8-10.1V52c0-1.3,1.1-2.5,2.8-2.8l18-2.4c3.5-0.5,5.7,0.2,5.7,2.4l-0.4,35.7c-0.1,9.9,2.4,13.6,7.7,13.6
			c4.5,0,8-4.7,8-12.1V62.6c0-5.7-4.8-7.1-4.8-10.1V52c0-1.3,1.1-2.5,2.8-2.8l18-2.4c3.5-0.5,5.3,0.2,5.3,2.4v42.9
			C146.3,101.8,151.5,97.1,151.5,102.1z"/>
		<path d="M208.4,88c-0.2,6.6-8.7,18.6-24.5,18.6c-17.5,0-29.8-12.2-29.8-30.5c0-17.9,13.9-29.8,29.7-29.8s23.1,8.9,23.1,16.5
			c0,3.6-1.9,6-4.7,7.5l-24,13.5c3.1,5,7.8,7.8,13.8,7.8c5.2,0,9.9-2.4,12.1-5.3C205.6,84.6,208.5,85.3,208.4,88z M173.5,64.8
			c0,4.7,0.6,9.1,1.8,12.7l11.2-6.8c1.9-1.3,3.1-3.6,3.1-6.2c0-3.9-1.9-12.4-8.1-12.4C176.7,52.1,173.5,57.8,173.5,64.8z"/>
		<path d="M212.4,92.3c0-5.4,3.7-7.7,8.6-7.7c12.1,0,8,16.5,18,16.5c3.6,0,6.5-1.8,6.5-6.6c0-15.8-32-6.5-32-29.9
			c0-10.7,10.4-18.4,25.5-18.4c15.3,0,25.4,6.6,25.4,14.5c0,4.2-3.6,7.4-8.1,7.4c-11.7,0-7.8-16.3-16.2-16.3c-3.7,0-5.7,3.4-5.7,6.9
			c0,16.5,30.9,7.8,30.9,30.1c0,10-9.5,17.7-26.3,17.7C223.7,106.4,212.4,100.8,212.4,92.3z"/>
		<path d="M274.2,84.2V55.6h-4.6c-1.6,0-2.8-1.2-2.8-2.8v-2.7c0-1.7,1.1-2.8,2.8-2.8h2.3c7.4,0,13.2-4.8,14.7-12.2
			c0.4-1.9,1.7-3.1,3.3-3.1h2.8c1.9,0,3.3,1.2,3.3,3.1v12.2h12.4c1.6,0,2.8,1.2,2.8,2.8v2.7c0,1.6-1.2,2.8-2.8,2.8H296v29
			c0,4.1,2.4,6.5,5.4,6.5c4.7,0,6.6-2.3,8-4.5c1.7-2.2,4.6-1.4,4.6,0.8c0,9.3-6.9,19.1-20,19.1C281.9,106.6,274.2,98.8,274.2,84.2z"
			/>
	</g>
</g>
</svg>
