<?xml version="1.0" encoding="utf-8"?>
<!-- Generator: Adobe Illustrator 28.3.0, SVG Export Plug-In . SVG Version: 6.00 Build 0)  -->
<svg version="1.1" id="Layer_1" xmlns="http://www.w3.org/2000/svg" xmlns:xlink="http://www.w3.org/1999/xlink" x="0px" y="0px"
	 viewBox="0 0 295 129.3" style="enable-background:new 0 0 295 129.3;" xml:space="preserve">
<g>
	<path d="M45.6,40.2c0,8.5-7.5,14.4-24.1,14.4H1.7c-1,0-1.7-0.5-1.7-1.4v-0.3c0-2,2.9-2.9,2.9-6.2V11.3C2.9,8,0,7.1,0,5.1V4.8
		C0,4,0.7,3.5,1.7,3.5h19.9c13,0,18.9,5.8,18.9,13c0,5.4-3.3,9.4-8.4,10.7C40.5,28.2,45.6,33.3,45.6,40.2z M15.8,21.3
		c0,2.4,1.6,3.7,3.9,3.7h3.6c3.7,0,6-2.7,6-6.8c0-6.2-3.2-9.8-8.1-9.8h-2c-1.9,0-3.4,0.9-3.4,3.7V21.3z M31.9,42.1
		c0-5.3-4.4-12-13-12h-3v13.3c0,3.5,2.1,6.1,5.4,6.1h3.5C29.3,49.6,31.9,46.5,31.9,42.1z"/>
	<path d="M48.5,53.2v-0.3c0-2.1,2.9-3,2.9-6.3V33c0-3.3-2.9-4.3-2.9-6v-0.3c0-0.8,0.6-1.2,1.7-1.7l10.9-5.3c2-1,3.2,0.1,3.2,1.5
		v25.5c0,3.3,3.2,4.2,3.2,6.3v0.3c0,0.9-0.7,1.4-1.8,1.4H50.3C49.2,54.6,48.5,54.1,48.5,53.2z M49.7,8.6c0-4.1,3.3-7.2,8.3-7.2
		c4.9,0,8.2,3.1,8.2,7.2c0,4-3.3,7.2-8.2,7.2C53,15.8,49.7,12.6,49.7,8.6z"/>
	<path d="M101.5,26.4c0,3.6-1.4,6.8-5.5,6.8c-6.6,0-3.6-6.8-7.2-6.8c-2.3,0-2.7,3.7-2.7,6.9v13.4c0,3.3,3.8,4.2,3.8,6.2v0.3
		c0,0.9-0.7,1.4-1.7,1.4H72.7c-1,0-1.7-0.5-1.7-1.4v-0.3c0-2,2.9-2.9,2.9-6.2V32.4c0-3.4-3.5-3.7-3.5-5.8v-0.2
		c0-0.9,0.6-1.5,1.7-2.1l10.2-4.8c1.9-0.9,2.6,0.1,2.6,1.6v5.3c1.6-4.6,5-7.1,9.9-7.1C99,19.3,101.5,22.4,101.5,26.4z"/>
	<path d="M106.6,42V24.9h-2.7c-0.9,0-1.7-0.7-1.7-1.7v-1.6c0-1,0.6-1.7,1.7-1.7h1.4c4.4,0,7.8-2.9,8.8-7.3c0.2-1.2,1-1.9,1.9-1.9
		h1.7c1.2,0,1.9,0.7,1.9,1.9V20h7.4c0.9,0,1.7,0.7,1.7,1.7v1.6c0,0.9-0.7,1.7-1.7,1.7h-7.4v17.3c0,2.4,1.4,3.9,3.2,3.9
		c2.8,0,4-1.4,4.8-2.7c1-1.3,2.7-0.9,2.7,0.5c0,5.5-4.1,11.4-12,11.4C111.2,55.3,106.6,50.7,106.6,42z"/>
	<path d="M173.3,52.9v0.3c0,0.9-0.6,1.4-1.7,1.4h-14.3c-1.1,0-1.7-0.5-1.7-1.4v-0.3c0-2.1,2.7-3,2.6-6.3l-0.7-13.4
		c-0.4-6.6-1.7-9.2-5-9.2c-3.2,0-4.7,2.8-4.7,7v15.7c0,3.3,3.2,4.1,3.2,6.2v0.3c0,0.9-0.7,1.4-1.7,1.4h-15.6c-1,0-1.7-0.5-1.7-1.4
		v-0.3c0-2.1,3.2-2.9,3.2-6.2V13.3c0-3.4-3.5-3.7-3.5-5.8V7.4c0-0.9,0.6-1.6,1.7-2l11.4-5c1.7-0.7,2.7-0.1,2.7,1.5v20.9
		c2.1-2.2,5.1-3.4,8.8-3.4c6.3,0,12.9,3.5,13.7,14.4l0.9,13C171,50,173.3,50.9,173.3,52.9z"/>
	<path d="M215.4,52.9v0.3c0,0.9-0.6,1.4-1.7,1.4h-10.3c-1.2,0-1.9-0.7-1.9-1.8v-0.6c-2.2,2-5.3,3.2-8.8,3.2c-8.7,0-17-6.2-17-18
		c0-10.7,8-18,17.1-18c3,0,5.5,0.7,7.4,2v-9.6c0-3.4-3.8-3.8-3.8-5.9V5.6c0-0.8,0.6-1.6,1.7-1.9l11.2-3.4c2.1-0.6,3.2-0.2,3.2,1.7
		v44.6C212.5,50.1,215.4,50.9,215.4,52.9z M200.3,45.7V31.8c0-4.6-3.2-9-6.5-9c-3.5,0-5.5,3.1-5.7,8.9c-0.2,6,2.2,19.9,7.6,20.1
		C198.1,51.9,200.3,49.6,200.3,45.7z"/>
	<path d="M256.4,52.7c0,1.9-4.2,2.4-8.1,2.4c-4.3,0-6.4-0.9-7-3.5c-1.5,2.1-4.4,3.7-9.1,3.7c-7.7,0-13.6-3.5-13.6-10.9
		c0-7.3,6.1-11,13-11c3,0,5.5,0.7,7.3,1.8v-0.2c-0.9-8.5-1.4-12.2-5.1-12.2c-5,0-3,9.6-9.4,9.6c-3,0-5-1.9-5-4.7
		c0-5.9,7.1-8.4,14.4-8.4c9.6,0,16.3,5.6,17.5,14.5l1.6,12.9C253.4,51.9,256.4,50.6,256.4,52.7z M239.8,46.5l-0.3-3.3
		c-0.5-4.3-2.4-6-4.5-6c-2.2,0-3.7,1.9-3.7,4.9c0,5.1,1.7,9.6,4.7,9.6C238.5,51.6,239.8,48.9,239.8,46.5z"/>
	<path d="M295,21.4v0.3c0,2.1-2.4,3.1-3.9,6.3l-13.6,29.3c-2,4.5-6,12.7-13.6,12.7c-7.1,0-11.4-4.2-11.4-8.4c0-3,1.9-5,5.1-5
		c6.9,0,4.7,9.6,8.1,9.6c2.2,0,4.9-4.9,6.8-9.4L257.8,28c-1.7-3.4-4-4.2-4-6.3v-0.3c0-0.9,0.6-1.4,1.7-1.4h15.5
		c0.9,0,1.6,0.6,1.6,1.4v0.3c0,2-2.7,2.4-1,6.4l7.3,17.3l6.6-16.1c2-4.9-3.4-5.6-3.4-7.6v-0.3c0-0.9,0.7-1.4,1.7-1.4h9.6
		C294.3,20,295,20.5,295,21.4z"/>
</g>
<g>
	<path d="M36,87.9c0-14.6,9.5-25.6,24-25.6c11.2,0,20.9,6.2,20.9,13.8c0,3.3-2.2,5.7-6,5.7c-9,0-8.9-14.3-17.5-14.3
		c-4.5,0-8.7,4.5-8.7,12.5c0,14,8,23.2,16.2,23.2c6.7,0,10.1-4.6,12.2-7.6c1.4-1.6,4-1.1,4,1.3c-0.4,9.1-6.8,18-20.3,18
		C46.3,114.8,36,101.9,36,87.9z"/>
	<path d="M125.4,112.5v0.3c0,0.9-0.6,1.4-1.7,1.4h-14.3c-1.1,0-1.7-0.5-1.7-1.4v-0.3c0-2.1,2.7-3,2.6-6.3l-0.7-13.4
		c-0.4-6.6-1.7-9.2-5-9.2c-3.2,0-4.7,2.8-4.7,7v15.7c0,3.3,3.2,4.1,3.2,6.2v0.3c0,0.9-0.7,1.4-1.7,1.4H85.7c-1,0-1.7-0.5-1.7-1.4
		v-0.3c0-2.1,3.2-2.9,3.2-6.2V72.8c0-3.4-3.5-3.7-3.5-5.8v-0.2c0-0.9,0.6-1.6,1.7-2l11.4-5c1.7-0.7,2.7-0.1,2.7,1.5v20.9
		c2.1-2.2,5.1-3.4,8.8-3.4c6.3,0,12.9,3.5,13.7,14.4l0.9,13C123.1,109.5,125.4,110.4,125.4,112.5z"/>
	<path d="M128.4,112.7v-0.3c0-2.1,2.9-3,2.9-6.3V92.5c0-3.3-2.9-4.3-2.9-6v-0.3c0-0.8,0.6-1.2,1.7-1.7l10.9-5.3c2-1,3.2,0.1,3.2,1.5
		v25.5c0,3.3,3.2,4.2,3.2,6.3v0.3c0,0.9-0.7,1.4-1.8,1.4h-15.5C129,114.1,128.4,113.6,128.4,112.7z M129.5,68.1
		c0-4.1,3.3-7.2,8.3-7.2c4.9,0,8.2,3.1,8.2,7.2c0,4-3.3,7.2-8.2,7.2C132.8,75.3,129.5,72.1,129.5,68.1z"/>
	<path d="M214.1,112.5v0.3c0,0.9-0.7,1.4-1.7,1.4h-14.4c-1,0-1.7-0.5-1.7-1.4v-0.3c0-2,2.8-3,2.6-6.3l-0.7-12.7
		c-0.4-7.3-1.9-9.9-5-9.9c-3,0-4.5,2.9-4.5,6.8c0.1,1,0.2,1.9,0.2,3v12.8c0,3.3,2.6,4.2,2.6,6.3v0.3c0,0.9-0.7,1.4-1.7,1.4h-14.3
		c-1.1,0-1.7-0.5-1.7-1.4v-0.3c0-2,2.5-3,2.5-6.3V92.6c0-6.1-1.9-9-4.9-9c-3.3,0-4.8,3-4.8,6.8v15.8c0,3.3,3.2,4.2,3.2,6.3v0.3
		c0,0.9-0.6,1.4-1.7,1.4h-15.6c-1.1,0-1.7-0.5-1.7-1.4v-0.3c0-2,3.2-3,3.2-6.3V92.1c0-3.4-3.8-3.9-3.8-6v-0.2c0-0.9,0.7-1.3,1.7-1.8
		l10.8-5c1.8-0.9,2.7,0.3,2.7,1.7v2.6c2.1-2.9,5.5-4.6,9.6-4.6c5,0,9.3,2,11.8,5.9c1.9-3.7,5.9-5.9,10.7-5.9
		c6.2,0,12.4,3.5,13.2,15.1l0.9,12.3C211.7,109.6,214.1,110.5,214.1,112.5z"/>
	<path d="M256.1,96.3c0,11.4-8.1,18.6-17,18.6c-3,0-5.4-0.7-7.3-2.1v8.7c0,3.3,3.2,4.2,3.2,6.2v0.3c0,0.9-0.7,1.4-1.7,1.4H218
		c-1,0-1.7-0.5-1.7-1.4v-0.3c0-2,2.9-2.9,2.9-6.2V91.9c0-3.1-3.5-3.5-3.5-5.5V86c0-0.9,0.6-1.5,1.7-2.1l9.5-4.7c2.2-1,3,0,3,1.4v2.1
		c1.8-2.5,5.1-4,9.2-4C247.2,78.8,256.1,84.5,256.1,96.3z M243.4,102.2c0-7.8-2.1-19.9-7.3-19.9c-2.6,0-4.3,2.3-4.3,5.7v13
		c0,6.1,3,10.2,6.2,10.2C241.6,111.3,243.4,108.1,243.4,102.2z"/>
</g>
</svg>
